<svg width="38" height="38" viewBox="0 0 38 38" fill="none" xmlns="http://www.w3.org/2000/svg">
<path d="M29.4492 21.0508V16.9492H21.0508V8.55078H16.9492V16.9492H8.55078V21.0508H16.9492V29.4492H21.0508V21.0508H29.4492ZM33.5508 0.25C34.6576 0.25 35.6341 0.673177 36.4805 1.51953C37.3268 2.36589 37.75 3.34245 37.75 4.44922V33.5508C37.75 34.6576 37.3268 35.6341 36.4805 36.4805C35.6341 37.3268 34.6576 37.75 33.5508 37.75H4.44922C3.27734 37.75 2.26823 37.3268 1.42187 36.4805C0.640625 35.6341 0.25 34.6576 0.25 33.5508V4.44922C0.25 3.34245 0.640625 2.36589 1.42187 1.51953C2.26823 0.673177 3.27734 0.25 4.44922 0.25H33.5508Z" fill="#2B3040"/>
</svg>
