<svg width="32" height="36" viewBox="0 0 32 36" fill="none" xmlns="http://www.w3.org/2000/svg">
<path d="M26.9105 3.8118H24.023V1.58217C24.023 0.976384 23.5376 0.485352 22.9387 0.485352C22.3398 0.485352 21.8544 0.976384 21.8544 1.58217V3.8118H9.87572V1.58217C9.87572 0.976384 9.39028 0.485352 8.79138 0.485352C8.19249 0.485352 7.70705 0.976384 7.70705 1.58217V3.8118H4.81953C2.26904 3.8118 0.194092 5.91063 0.194092 8.49049V30.8358C0.194092 33.4156 2.26904 35.5145 4.81953 35.5145H26.9105C29.461 35.5145 31.5359 33.4156 31.5359 30.8358V8.49049C31.5359 5.9107 29.4609 3.8118 26.9105 3.8118ZM2.36276 8.49049C2.36276 7.12022 3.46486 6.00544 4.81953 6.00544H7.70705V8.23507C7.70705 8.84085 8.19249 9.33189 8.79138 9.33189C9.39028 9.33189 9.87572 8.84085 9.87572 8.23507V6.00544H21.8543V8.23507C21.8543 8.84085 22.3398 9.33189 22.9386 9.33189C23.5375 9.33189 24.023 8.84085 24.023 8.23507V6.00544H26.9104C28.2651 6.00544 29.3672 7.12022 29.3672 8.49049V13.5083H2.36276V8.49049ZM26.9105 33.3208H4.81953C3.46486 33.3208 2.36276 32.2061 2.36276 30.8358V15.702H29.3673V30.8359C29.3672 32.2061 28.2652 33.3208 26.9105 33.3208Z" fill="#A4A4A4"/>
</svg>
