<svg width="17" height="16" viewBox="0 0 17 16" fill="none" xmlns="http://www.w3.org/2000/svg">
<path d="M12.8911 4.50781H9.07757V9.96745L10.5331 8.50562C10.6529 8.38674 10.815 8.32019 10.9838 8.32054C11.1526 8.32088 11.3144 8.38809 11.4337 8.50746C11.5531 8.62682 11.6203 8.78861 11.6207 8.95742C11.621 9.12622 11.5545 9.28829 11.4356 9.40814L8.89325 11.9505C8.77236 12.0678 8.61049 12.1335 8.44199 12.1335C8.27349 12.1335 8.11163 12.0678 7.99073 11.9505L5.4484 9.40814C5.32953 9.28829 5.26298 9.12622 5.26332 8.95742C5.26367 8.78861 5.33088 8.62682 5.45024 8.50746C5.56961 8.38809 5.7314 8.32088 5.90021 8.32054C6.06901 8.32019 6.23108 8.38674 6.35093 8.50562L7.80641 9.96745V4.50781H3.99292C3.48768 4.50929 3.00355 4.71065 2.64628 5.06791C2.28902 5.42518 2.08766 5.90931 2.08618 6.41456V12.7704C2.08766 13.2756 2.28902 13.7597 2.64628 14.117C3.00355 14.4743 3.48768 14.6756 3.99292 14.6771H12.8911C13.3963 14.6756 13.8804 14.4743 14.2377 14.117C14.595 13.7597 14.7963 13.2756 14.7978 12.7704V6.41456C14.7963 5.90931 14.595 5.42518 14.2377 5.06791C13.8804 4.71065 13.3963 4.50929 12.8911 4.50781Z" fill="#259C6F"/>
<path d="M9.07732 2.6014C9.07732 2.43283 9.01036 2.27117 8.89116 2.15198C8.77197 2.03278 8.6103 1.96582 8.44174 1.96582C8.27317 1.96582 8.11151 2.03278 7.99231 2.15198C7.87312 2.27117 7.80615 2.43283 7.80615 2.6014V4.50814H9.07732V2.6014Z" fill="#259C6F"/>
</svg>
