<svg width="28" height="27" viewBox="0 0 28 27" fill="none" xmlns="http://www.w3.org/2000/svg">
<path fill-rule="evenodd" clip-rule="evenodd" d="M27.3764 13.4949C27.3764 20.8092 21.447 26.7386 14.1326 26.7386C6.81833 26.7386 0.888916 20.8092 0.888916 13.4949C0.888916 6.18055 6.81833 0.251129 14.1326 0.251129C21.447 0.251129 27.3764 6.18055 27.3764 13.4949ZM21.1033 11.0393C21.5758 10.4809 21.5061 9.6453 20.9478 9.17284C20.3894 8.70037 19.5537 8.77001 19.0813 9.32838L12.727 16.838L9.7716 13.8827C9.2544 13.3655 8.41585 13.3655 7.89865 13.8827C7.38145 14.3999 7.38145 15.2384 7.89865 15.7556L11.8718 19.7287C12.1337 19.9906 12.4932 20.1309 12.8633 20.1155C13.2333 20.1001 13.58 19.9305 13.8193 19.6477L21.1033 11.0393Z" fill="#5FD754"/>
</svg>
