<svg width="38" height="38" viewBox="0 0 38 38" fill="none" xmlns="http://www.w3.org/2000/svg">
<g opacity="0.5">
<path fill-rule="evenodd" clip-rule="evenodd" d="M36.2305 1.26953C35.3841 0.423177 34.4076 0 33.3008 0H4.19922C3.02734 0 2.01823 0.423177 1.17188 1.26953C0.390625 2.11589 0 3.09245 0 4.19922V33.3008C0 34.4076 0.390625 35.3841 1.17188 36.2305C2.01823 37.0768 3.02734 37.5 4.19922 37.5H33.3008C34.4076 37.5 35.3841 37.0768 36.2305 36.2305C37.0768 35.3841 37.5 34.4076 37.5 33.3008V4.19922C37.5 3.09245 37.0768 2.11589 36.2305 1.26953ZM28.75 16.75H8.75V20.75H28.75V16.75Z" fill="#2B3040"/>
</g>
</svg>
